<svg width="20" height="20" xmlns="http://www.w3.org/2000/svg"><path d="M19.667.453a1.158 1.158 0 0 0-.733-.226.979.979 0 0 0-.72.293l-8.2 8.093-.093-.093L1.76.267a.838.838 0 0 0-.534-.254A.678.678 0 0 0 1.094 0C.845 0 .627.111.44.333a1.169 1.169 0 0 0-.214.734c0 .257.094.48.28.666l8.027 8.16.093.094-8.36 8.266A.865.865 0 0 0 0 18.92c0 .249.11.467.333.653.213.151.458.223.733.214a.91.91 0 0 0 .667-.28l8.253-8.134.307.307.107.107 7.813 7.946c.169.178.395.267.68.267h.08c.213-.036.409-.147.587-.333a1.16 1.16 0 0 0 .226-.734.979.979 0 0 0-.293-.72l-7.693-7.8-.107-.106-.307-.307 8.347-8.2c.178-.169.267-.396.267-.68-.01-.249-.12-.471-.334-.667z" fill-rule="evenodd"/></svg>