<svg width="149" height="20" xmlns="http://www.w3.org/2000/svg"><path d="M148.192 8.868c.068.336.068.673.068 1.01l-1.279.74 1.211.808-.201.806-2.827-1.75 3.028-1.614zm-.337-1.547c.136.403.203.74.27 1.144l-3.837 2.018 3.635 2.154c-.134.404-.27.74-.471 1.144l-5.25-3.299 5.653-3.161zm-5.788-5.856c.337.067.674.202 1.01.403v1.346l1.21-.673c.338.202.607.471.876.673l-3.097 1.615V1.465h.001zm5.184 4.442c.201.337.335.673.47 1.077l-6.325 3.5 5.922 3.634c-.134.337-.336.607-.472.874l-6.46-3.97v8.345h-1.212v-9.085l8.077-4.375zm-6.53-4.846c.338.067.674.134.943.27v4.172l3.837-2.019c.27.27.539.538.74.875l-5.52 2.894V1.06zm-1.548-.135c.405 0 .808.067 1.145.067v6.932l6.192-3.298c.202.336.403.606.539.942l-7.876 4.24V.926zm-6.191 2.423a4.35 4.35 0 0 1 .873-.673l1.01.539V2.003c.337-.135.673-.336 1.01-.471V4.83l-2.893-1.481zm-1.01 1.145c.202-.337.472-.606.74-.875l3.567 1.885V1.398c.27-.067.607-.202.942-.269v6.125l-5.249-2.76zm-.807 1.21c.134-.336.337-.605.539-.942l5.923 3.164V1.06c.404-.067.74-.067 1.143-.067V9.81l-7.605-4.105zm-.673 1.414c.134-.336.27-.74.471-1.077l7.807 4.24v9.085h-1.144v-8.345l-6.192 3.904c-.201-.337-.403-.606-.539-.943l5.654-3.499-6.057-3.365zm-.337 1.481c.067-.336.134-.74.27-1.077l5.316 2.961-4.98 3.097a3.3 3.3 0 0 1-.405-1.144l3.299-1.953-3.5-1.884zm-.134 1.48c0-.336 0-.74.066-1.076l2.693 1.48-2.558 1.548c-.067-.269-.067-.538-.135-.873l.875-.54-.941-.538zM1.82 2.75h10.345v3.342h-3.62v11.182l-3.77.346V6.09H.852l.968-3.342zm8.992 3.813l3.474-.343 1.779 5.206 2.848-5.742 2.614 5.634 1.885-5.098 3.406.343-4.991 11.528-3.02-6.194-3.064 6.194-4.93-11.528zm25.196 6.897l1.778 2.593c-1.158.92-2.828 1.74-4.863 1.74-3.663 0-5.977-2.79-5.977-6.11 0-3.385 2.807-5.634 5.892-5.634 2.249 0 4.284 1.242 5.355 3.47l-7.048 4.455c.536.536 1.286.73 1.95.73.707 0 1.67-.3 2.913-1.244zm-5.698-1.628l3.877-2.463a1.754 1.754 0 0 0-1.264-.492c-1.306 0-2.634.92-2.634 2.676 0 .087 0 .195.02.28zm12.617 5.442l-3.342.346V2.449l3.342-.343v15.167zm.532-10.54l3.43-.642 2.164 5.42 2.185-5.42 3.449.643-5.72 11.656L43.46 6.734zm20.183 6.726l1.776 2.593c-1.156.92-2.827 1.74-4.862 1.74-3.663 0-5.976-2.79-5.976-6.11 0-3.385 2.806-5.634 5.891-5.634 2.25 0 4.285 1.242 5.355 3.47l-7.047 4.455c.535.536 1.285.73 1.949.73.707 0 1.671-.3 2.914-1.244zm-5.7-1.628l3.879-2.463a1.755 1.755 0 0 0-1.264-.492c-1.307 0-2.636.92-2.636 2.676 0 .087 0 .195.022.28zm13.689-1.735c0-4.284 3.598-7.69 8.055-7.69 4.455 0 8.055 3.406 8.055 7.69 0 4.285-3.6 7.695-8.055 7.695-4.457 0-8.055-3.41-8.055-7.695zm3.77 0c0 2.422 1.929 4.35 4.286 4.35 2.356 0 4.284-1.93 4.284-4.35s-1.928-4.348-4.284-4.348c-2.357 0-4.285 1.928-4.285 4.348zm14.674-.47l.557-3c1.5-.472 2.593-.579 3.407-.579 4.498 0 4.67 2.914 4.67 3.92v7.37l-3.15.346v-1.138c-.364.535-1.113 1.246-2.763 1.246-2.42 0-4.092-1.611-4.092-3.796 0-2.205 1.607-3.813 4.092-3.813.75 0 1.628.15 2.57.857v-.6c0-.364-.063-1.52-1.97-1.52-.707 0-1.863.085-3.32.706zm3.621 5.656c1.029 0 1.67-.579 1.67-1.393 0-.815-.641-1.393-1.67-1.393-.986 0-1.67.514-1.67 1.393 0 .814.642 1.393 1.67 1.393zm6.898 2.337V2.449l3.342-.343v8.91l3.706-5.118 3.384 1.007-3.663 4.628 4.22 5.268-3.6.925-4.047-5.487v5.034l-3.342.346zm19.45-9.964l-1.95 1.928c-.727-.642-1.457-.75-1.906-.75-.814 0-1.093.386-1.093.707 0 .728 1.115.814 1.821.942.708.129 1.522.321 2.207.814.75.535 1.285 1.435 1.285 2.657 0 1.864-1.414 3.838-4.69 3.838-1.672 0-3.151-.605-4.35-1.611l1.757-2.27c.77.728 1.757 1.093 2.656 1.093 1.007 0 1.35-.473 1.35-.836 0-.493-.45-.643-.729-.708-.77-.17-1.863-.235-2.913-.855-1.37-.792-1.627-2.079-1.627-2.893 0-1.671 1.306-3.663 4.219-3.663 1.842 0 3.128.75 3.962 1.607z" fill="#333"/></svg>