<svg width="135" height="32" xmlns="http://www.w3.org/2000/svg"><path d="M4.847 2.007c0-.685.115-.8 1.716-.8 2.972 0 4.344 1.944 4.344 4.116 0 1.715-.685 2.745-1.372 3.201-.8.687-1.83.687-2.744.687-1.372 0-1.715 0-1.83-.114-.114-.114-.114-.344-.114-.8v-6.29zM2.675 14.012c0 2.744 0 3.088-1.6 3.316l-.573.114c-.228.115-.114.573 0 .573H7.02c.114 0 .23-.458 0-.573l-.572-.113c-1.486-.229-1.6-.572-1.6-3.316v-3.316c0-.571.114-.685 1.257-.685 1.143 0 1.486.343 1.944.914.8 1.143 1.83 2.973 2.515 4.002 1.944 2.63 3.315 3.316 5.488 3.316.572 0 .915 0 1.258-.114.114-.114 0-.342-.114-.342-.686-.115-1.372-.344-1.83-.802-1.715-1.486-3.201-3.544-5.26-6.974-.114-.229-.343-.572-.114-.686 1.258-.572 3.316-1.944 3.316-4.46 0-1.829-1.03-2.972-2.287-3.658-1.144-.686-2.744-.8-4.345-.8A72.9 72.9 0 0 0 .729.635C.5.75.5 1.094.729 1.322h.8c1.144.229 1.144.685 1.144 3.201v9.49h.002zm22.982 3.66c-4.46 0-6.06-4.345-6.06-7.66 0-5.032 3.087-6.633 5.373-6.633 4.345 0 6.06 4.116 6.06 7.775 0 4.46-2.63 6.517-5.373 6.517zm-.23.686c4.345 0 7.776-3.316 7.776-7.89 0-4.001-2.63-7.774-7.775-7.774-4.688 0-8.118 3.544-8.118 8.003 0 4.002 3.087 7.66 8.118 7.66zm14.521 0c-1.943 0-3.201-.571-3.544-.915-.343-.457-.571-2.057-.685-3.087.114-.23.457-.23.571-.114.343 1.144 1.258 3.43 3.887 3.43 1.945 0 2.859-1.257 2.859-2.63 0-1.03-.229-2.057-1.83-3.201l-2.172-1.372C37.891 9.783 36.52 8.41 36.52 6.58c0-2.058 1.715-3.888 4.687-3.888.687 0 1.487.114 2.058.343.344.114.572.114.8.114.23.571.458 1.83.458 2.744-.114.114-.458.228-.572.114-.342-1.143-.914-2.63-3.087-2.63-2.287 0-2.744 1.487-2.744 2.516 0 1.372 1.143 2.287 1.943 2.858l1.83 1.029c1.372.914 2.745 2.286 2.745 4.344 0 2.518-1.83 4.233-4.689 4.233zm10.52-11.891c0-2.287 0-2.63-1.372-2.859h-.343c-.114-.114-.114-.571 0-.571h9.948c.228.342.343 1.944.457 2.972-.114.114-.457.229-.572 0-.343-1.029-.572-1.83-1.715-2.058-.458-.114-1.258-.114-2.286-.114h-1.601c-.686 0-.686 0-.686.8v4.574c0 .572.114.572.8.572h1.258c1.03 0 1.715 0 1.943-.114.343-.115.458-.229.572-.8l.229-.915c0-.114.457-.114.571 0 0 .571-.114 1.486-.114 2.287 0 .8.114 1.714.114 2.172-.114.229-.571.229-.685 0l-.116-.801c-.114-.458-.229-.8-.685-.915-.343-.114-.915-.114-1.83-.114h-1.258c-.685 0-.8 0-.8.572v3.201c0 1.258.115 2.06.457 2.402.23.228.8.457 2.744.457 1.716 0 2.401 0 2.859-.229.458-.228 1.03-1.029 1.6-2.286.23-.114.458 0 .572.229-.114.8-.685 2.515-1.029 3.087H48.41c-.229 0-.229-.457-.115-.572h.8c1.258-.113 1.372-.458 1.372-2.858v-8.12h.001zm10.29-2.974c-.114-.114-.114-.457.114-.457h4.802c.23 0 .23.343.114.457l-.571.114c-.458 0-.686.114-.686.343 0 .343.458 1.486 1.143 3.088 1.258 2.744 2.63 5.602 3.888 8.346.573-1.144 1.143-2.401 1.716-3.659.228-.343.342-.8.342-.914.114-.114 0-.23-.114-.572a112.934 112.934 0 0 0-2.516-5.374c-.342-.686-.686-1.258-1.371-1.258l-.572-.114c-.229-.114-.114-.457 0-.457h4.917c.113 0 .229.343 0 .457l-.572.114c-.8 0-.915.23-.458 1.258.458 1.03 1.143 2.515 1.716 3.887.457-.914.914-1.714 1.372-2.972.8-1.945.685-2.173 0-2.173l-.686-.114c-.115-.228-.115-.457 0-.457h4.345c.113 0 .113.343 0 .457l-.573.114c-1.028 0-1.372 1.03-1.942 1.944A99.807 99.807 0 0 0 73.45 9.21c-.113.229-.229.458-.229.572l.229.457c.686 1.715 1.487 3.43 2.286 5.145.686-1.6 1.372-3.087 1.945-4.687.457-1.144 1.715-4.116 1.83-4.574.343-.8.685-1.715.685-2.057 0-.23-.229-.458-.686-.458l-.685-.114c-.23-.114-.23-.457 0-.457h4.23c.229 0 .229.342.113.457l-.457.114c-1.143.114-1.372.8-2.63 3.888l-1.715 3.888c-.914 2.287-1.83 4.46-2.744 6.86-.114.114-.228.114-.343.114-.113 0-.229 0-.342-.114-.686-1.944-1.945-4.803-2.744-6.403-.801 1.6-2.173 4.574-2.744 6.403-.115.114-.23.114-.344.114-.114 0-.228 0-.342-.114-.343-.914-1.258-2.973-1.487-3.659-1.486-3.087-2.858-6.174-4.345-9.375-.457-.916-.685-1.487-1.6-1.601l-.573-.116zM91.63 17.671c-4.46 0-6.06-4.344-6.06-7.66 0-5.03 3.087-6.632 5.373-6.632 4.345 0 6.06 4.116 6.06 7.775 0 4.46-2.63 6.517-5.373 6.517zm-.23.687c4.346 0 7.775-3.316 7.775-7.89 0-4.001-2.63-7.774-7.774-7.774-4.688 0-8.118 3.544-8.118 8.003 0 4.002 3.087 7.66 8.118 7.66zm18.295-.687c-4.46 0-6.06-4.344-6.06-7.66 0-5.03 3.087-6.632 5.373-6.632 4.345 0 6.059 4.116 6.059 7.775 0 4.46-2.628 6.517-5.372 6.517zm-.23.687c4.346 0 7.775-3.316 7.775-7.89 0-4.001-2.515-7.774-7.774-7.774-4.688 0-8.118 3.544-8.118 8.003 0 4.002 3.086 7.66 8.118 7.66zM123.072 5.78c0-1.029 0-1.6.23-1.714.228-.23.914-.344 2.286-.344 5.83 0 7.088 4.23 7.088 6.632 0 4.23-1.943 7.088-6.402 7.088-1.372 0-2.286-.228-2.744-.914-.342-.572-.458-1.258-.458-2.516V5.78zm-1.828 8.805c0 2.4-.115 2.63-1.372 2.857h-.573c-.113.115 0 .573.115.573h2.857c.686 0 2.173.113 3.66.113 1.714 0 3.544-.229 5.03-1.028 2.515-1.487 3.887-3.889 3.887-6.747 0-2.973-1.486-5.602-4.573-6.632-1.372-.571-2.973-.685-4.917-.685-1.943 0-3.774 0-5.717.114-.228.114-.114.457 0 .571l.571.114c.915.114 1.03.572 1.03 2.173v8.577h.002zM6.448 25.675c0-.685 0-1.258-.114-1.371a.87.87 0 0 0-.572-.23l-.229-.114c-.114 0-.114-.115 0-.115h2.63c.114 0 .114.115 0 .115l-.114.115c-.343 0-.457.113-.571.229-.114.113-.114.685-.114 1.372v1.257c0 .343 0 .343.457.343h3.43c.457 0 .571 0 .571-.343v-1.257c0-.686-.114-1.259-.228-1.372-.114-.115-.343-.23-.457-.23l-.23-.114c-.113 0-.113-.115 0-.115h2.63s.115.115 0 .115l-.228.115c-.114 0-.458.113-.572.229-.114.113-.114.685-.114 1.372v3.887c0 .685 0 1.257.114 1.485.114.115.458.115.572.115l.229.113c.114 0 .114.115 0 .115h-2.63c-.114 0-.114-.115 0-.115l.229-.113c.228 0 .343 0 .457-.23.114-.114.228-.685.228-1.371v-1.6c0-.344-.114-.344-.571-.344H7.82c-.458 0-.458 0-.458.343v1.601c0 .686 0 1.257.114 1.372.114.229.343.229.571.229l.343.113v.115H5.647c-.114 0-.114-.115 0-.115h.114c.23-.113.457-.113.572-.342.114-.115.114-.686.114-1.372v-3.886zm13.492-.8c2.058 0 2.744 1.83 2.744 3.429 0 2.173-1.144 2.973-2.515 2.973-1.945 0-2.63-1.943-2.63-3.43 0-2.286 1.372-2.972 2.401-2.972zm.229-.23c-2.059 0-3.544 1.487-3.544 3.546 0 1.714 1.257 3.315 3.544 3.315 1.943 0 3.43-1.372 3.43-3.43 0-1.83-1.144-3.43-3.43-3.43zm11.09.116h.686c.114 0 .114-.114.229-.23h.114c-.114.46-.23 1.259-.114 1.487h-.23c-.113-.342-.113-.571-.228-.686-.344-.229-.686-.342-1.258-.342h-.686c-.228 0-.228 0-.228.458v4.344c0 .571 0 1.143.114 1.257.114.115.343.115.457.23h.343v.114h-2.744v-.115l.458-.113c.114 0 .343 0 .457-.115.114-.113.114-.685.114-1.257v-4.345c0-.457 0-.457-.342-.457h-.572c-.572 0-1.03.113-1.258.342-.229.229-.343.457-.458.685 0 0-.114 0-.228-.113.228-.343.342-1.03.457-1.373h.114c0 .115.114.115.229.23h4.574zm4.46 1.601c0-.686 0-1.03-.114-1.143-.114-.115-.23-.229-.458-.229l-.114-.115c-.114 0-.114-.113 0-.113h4.345c0 .229.114.914.114 1.257 0 0-.114.115-.114 0-.114-.457-.343-.8-.8-.914-.23 0-.572-.113-1.03-.113h-.571c-.343 0-.343.113-.343.113-.114.115-.114.343-.114.801v1.6c0 .23 0 .343.343.343h.571c.343 0 .686-.113.915-.113.114 0 .114-.115.228-.344l.115-.458s.114 0 .228.115c0 .113-.114.571-.114.915 0 .342.114.8.114.914a.355.355 0 0 1-.228.113l-.115-.457c-.114-.23-.114-.342-.228-.342-.23-.115-.572-.115-.915-.115h-.571c-.343 0-.343 0-.343.343v1.372c0 .458 0 .915.229 1.143.114.114.228.23 1.143.23 1.143 0 1.6-.116 2.057-1.144h.229c-.114.342-.229 1.143-.457 1.372h-4.917c-.114 0-.114-.115 0-.115l.343-.113c.229 0 .343-.115.458-.115.114-.229.114-.685.114-1.257v-3.431zm8.575 3.43c0 .457 0 .914.229 1.143.114.113.228.228 1.143.228 1.143 0 1.486-.114 1.943-1.143h.114c0 .342-.228 1.143-.342 1.372h-4.689c-.114 0-.114-.114 0-.114l.23-.114c.228 0 .456 0 .456-.115.114-.228.229-.685.229-1.257v-3.43c0-.572-.115-1.03-.229-1.258 0-.113-.228-.113-.457-.113l-.229-.115c-.114 0-.114-.113 0-.113h2.402c.114 0 .114.113.114.113l-.23.115c-.228 0-.457 0-.57.113-.115.229-.115.686-.115 1.259v3.429zm9.26-5.03h.344c.114.341.228.914.228 1.256h-.228c-.114-.457-.458-1.143-1.372-1.143-1.03 0-1.258.801-1.258 1.143 0 .686.572 1.03.914 1.26l.914.57c.458.344 1.03.914 1.03 1.83 0 1.143-.8 1.83-2.059 1.83-.8 0-1.258-.23-1.486-.343-.114-.229-.228-.801-.228-1.372h.114c.228.57.685 1.485 1.83 1.485.8 0 1.257-.57 1.257-1.257 0-.457-.114-.914-.914-1.372l-.8-.572c-.687-.342-1.145-.915-1.145-1.714 0-.915.686-1.716 1.945-1.716.343-.001.686-.001.915.114zm9.376 2.972c.686.458 1.715 1.485 2.058 2.4-.343.458-.914.915-1.715.915-.914 0-1.487-.8-1.487-1.601.001-.686.459-1.257 1.144-1.714zm.115 3.772c.8 0 1.6-.571 2.058-1.144.229.115.457.801.685.915.114.115.572.229 1.03.229.571 0 1.143-.114 1.6-.686 0 0 0-.113-.115-.113-.228.228-.57.342-.914.342-.457 0-.914-.114-1.486-.915a1.563 1.563 0 0 1-.343-.457c.572-.8 1.03-1.372 1.143-1.714.344-.458.572-.801.686-.915.114-.114.229-.114.344-.228l.57-.115v-.113h-2.171c-.114.113-.114.113 0 .228h.343c.228 0 .228.114.228.114 0 .114 0 .343-.228.685-.23.573-.572 1.143-1.03 1.83-.571-1.029-1.257-1.601-1.829-2.058.343-.342.914-.685.914-1.257 0-.572-.571-1.143-1.258-1.143-.686 0-1.371.57-1.371 1.372 0 .457.343.914.8 1.143-.8.57-1.6 1.257-1.6 2.172 0 .914.571 1.828 1.944 1.828zm.343-4.345c-.458-.229-.914-.57-.914-1.143 0-.458.342-.8.685-.8.572 0 .8.458.8.914 0 .343-.228.8-.571 1.029zm12.234-2.4c0-.343 0-.572.114-.572.114-.113.343-.113.685-.113 1.259 0 1.831.914 1.831 1.83 0 .914-.23 1.256-.572 1.484-.342.228-.801.344-1.259.344-.457 0-.685-.115-.685-.115-.114 0-.114-.113-.114-.342v-2.516zm-.8 4.802c0 .685-.114 1.257-.23 1.372-.113.228-.342.228-.457.228l-.342.114v.115h2.744c.113 0 .113-.115 0-.115l-.23-.114c-.114 0-.343 0-.457-.228-.114-.115-.228-.686-.228-1.372v-1.259c0-.342 0-.342.685-.342.458 0 .571.113.686.342.457.572.914 1.372 1.143 1.83.801 1.143 1.372 1.372 2.402 1.372h.57v-.23c-.457 0-.685 0-.914-.228-.8-.686-1.372-1.6-2.286-3.086-.115-.115-.115-.229-.115-.344.572-.113 1.487-.8 1.487-1.83 0-.799-.458-1.371-1.029-1.6-.459-.343-1.144-.343-1.83-.343-.915 0-1.601 0-2.516.114-.113 0-.113.115 0 .115h.23c.343.113.457.229.571.342 0 .113.114.573.114 1.259v3.888h.001zm9.376-3.201c0-.686 0-1.03-.115-1.143-.113-.115-.229-.229-.458-.229l-.229-.115v-.113h4.46c0 .229 0 .914.115 1.257 0 0-.114.115-.23 0-.113-.457-.227-.8-.8-.914-.228 0-.57-.113-.914-.113h-.572c-.342 0-.458.113-.458.113v2.402c0 .229 0 .342.229.342h.572c.458 0 .8-.113.915-.113.113 0 .229-.115.343-.344v-.458c.114 0 .23 0 .23.115v1.829c0 .113-.116.113-.23.113l-.114-.457c0-.23-.115-.342-.23-.342-.114-.115-.457-.115-.914-.115h-.573c-.229 0-.229 0-.229.343v1.372c0 .458 0 .915.115 1.143.113.114.342.23 1.143.23 1.26 0 1.716-.116 2.173-1.144h.114c0 .342-.23 1.143-.342 1.372h-5.032v-.115l.458-.113c.114 0 .343-.115.457-.115.115-.229.115-.685.115-1.257v-3.431zm10.175-1.6h.342c.115.341.229.914.229 1.256h-.23c-.112-.457-.457-1.143-1.371-1.143-1.028 0-1.257.801-1.257 1.143 0 .686.57 1.03.914 1.26l.915.57c.457.344 1.143.914 1.143 1.83 0 1.143-.915 1.83-2.173 1.83-.8 0-1.258-.23-1.486-.343-.114-.229-.228-.801-.228-1.372h.113c.229.57.685 1.485 1.83 1.485.8 0 1.258-.57 1.258-1.257 0-.457-.115-.914-.914-1.372l-.801-.572c-.571-.342-1.144-.915-1.144-1.714 0-.915.686-1.716 1.945-1.716.343-.001.687-.001.915.114zm7.088.113c2.058 0 2.744 1.83 2.744 3.429 0 2.173-1.143 2.973-2.515 2.973-1.943 0-2.629-1.943-2.629-3.43 0-2.286 1.372-2.972 2.4-2.972zm.23-.23c-2.058 0-3.544 1.487-3.544 3.546 0 1.714 1.257 3.315 3.543 3.315 1.945 0 3.43-1.372 3.43-3.43 0-1.83-1.257-3.43-3.43-3.43zm7.775.916c0-.342 0-.458.113-.458 0-.113.344-.113.572-.113 1.144 0 1.601.8 1.601 1.6 0 .686-.229 1.03-.457 1.258a1.931 1.931 0 0 1-1.144.344c-.457 0-.572-.115-.685-.115V25.56zm-.801 4.23c0 .571 0 1.029-.113 1.258-.115.114-.344.114-.458.229h-.229v.114h2.4v-.114h-.228c-.114-.114-.342-.114-.458-.23-.113-.228-.113-.685-.113-1.256v-1.144c0-.228 0-.228.57-.228.344 0 .458.113.686.342.344.457.686 1.143.915 1.486.8 1.029 1.258 1.258 2.173 1.258h.457v-.23c-.343 0-.572 0-.8-.228-.686-.57-1.258-1.372-2.058-2.63 0-.114-.114-.228 0-.343.457-.113 1.258-.685 1.258-1.6 0-.686-.457-1.144-.914-1.372-.457-.23-1.03-.342-1.6-.342-.802 0-1.487 0-2.174.113-.113 0-.113.115-.113.115h.342c.229 0 .344.113.344.228.113.23.113.571.113 1.144v3.43zm12.349-5.03h.685c.114 0 .114-.114.23-.23h.112c-.113.46-.113 1.259-.113 1.487h-.229c0-.342-.114-.571-.228-.686-.23-.229-.686-.342-1.143-.342h-.686c-.344 0-.344 0-.344.458v4.344c0 .571 0 1.143.115 1.257.113.115.342.115.458.23h.342v.114h-2.744v-.115l.457-.113c.23 0 .344 0 .458-.115.115-.113.115-.685.115-1.257v-4.345c0-.457 0-.457-.344-.457h-.57c-.573 0-1.03.113-1.26.342-.228.229-.341.457-.457.685 0 0-.113 0-.113-.113.113-.343.342-1.03.342-1.373h.115c0 .115.113.115.228.23h4.574zm6.974 0h.342c.115.342.115.915.115 1.257h-.115c-.228-.457-.457-1.143-1.485-1.143-.914 0-1.143.801-1.143 1.143 0 .686.458 1.03.914 1.26l.915.57c.457.344 1.028.914 1.028 1.83 0 1.143-.8 1.83-2.057 1.83-.8 0-1.258-.23-1.486-.343-.228-.229-.343-.801-.343-1.372h.229c.114.57.685 1.485 1.715 1.485.915 0 1.257-.57 1.257-1.257 0-.457-.113-.914-.8-1.372l-.914-.572c-.572-.342-1.03-.915-1.03-1.714 0-.915.686-1.716 1.945-1.716.228-.001.685-.001.913.114z" fill="#333"/></svg>